<?xml version="1.0" encoding="UTF-8" standalone="no"?>

<svg
   width="400mm"
   height="100mm"
   viewBox="0 0 400 100"
   version="1.1">
  <g>
    <rect
       style="fill:#ff0000"
       width="26.520609"
       height="26.520609"
       x="8.9738417"
       y="70.965477"
       ry="0" />
    <rect
       style="fill:#ffff00"
       width="26.520609"
       height="26.520609"
       x="41.530331"
       y="70.784317"
       ry="0" />
    <rect
       style="fill:#ffffff"
       width="26.520609"
       height="26.520609"
       x="74.258652"
       y="70.999069"
       ry="0" />
    <rect
       style="fill:#ff0000"
       width="26.520609"
       height="26.520609"
       x="106.71159"
       y="70.909164"
       ry="0" />
    <rect
       style="fill:#ffffff"
       width="26.520609"
       height="26.520609"
       x="171.61285"
       y="70.806908"
       ry="0" />
    <rect
       style="fill:#ffff00"
       width="26.520609"
       height="26.520609"
       x="203.38062"
       y="70.694153"
       ry="0" />
    <rect
       style="fill:#ffffff"
       width="26.520609"
       height="26.520609"
       x="366.63876"
       y="70.825066"
       ry="0" />
    <path
       style="fill:#ffff00"
       d="M 8.9738411,70.965484 V 97.486087 H 35.49445 Z" />
    <rect
       style="fill:#0000ff"
       width="6.6301532"
       height="6.6301498"
       x="74.258652"
       y="84.259369" />
    <rect
       style="fill:#0000ff"
       width="6.6301532"
       height="6.6301498"
       x="80.888794"
       y="90.889526" />
    <rect
       style="fill:#0000ff"
       width="6.6301532"
       height="6.6301498"
       x="74.258652"
       y="70.999069" />
    <rect
       style="fill:#0000ff"
       width="13.407087"
       height="13.260303"
       x="178.10629"
       y="77.565765" />
    <rect
       style="fill:#ff0000"
       width="26.814175"
       height="13.260308"
       x="334.21579"
       y="83.982468" />
    <rect
       style="fill:#0000ff"
       width="26.814175"
       height="13.260308"
       x="334.21579"
       y="70.722153" />
    <rect
       style="fill:#ffff00"
       width="26.520605"
       height="5.3041215"
       x="106.71063"
       y="81.866905" />
    <rect
       style="fill:#ffff00"
       width="26.520605"
       height="5.3041215"
       x="70.592751"
       y="-122.83721"
       transform="rotate(90.138389)" />
    <rect
       style="fill:#0000ff"
       width="6.6301532"
       height="6.6301498"
       x="80.888794"
       y="77.629219" />
    <rect
       style="fill:#000000"
       width="13.260293"
       height="13.260304"
       x="152.9222"
       y="70.833687" />
    <rect
       style="fill:#000000"
       width="13.260293"
       height="13.260304"
       x="139.66191"
       y="84.093987" />
    <rect
       style="fill:#ffff00"
       width="13.260293"
       height="13.260304"
       x="139.66191"
       y="70.833687" />
    <rect
       style="fill:#ffff00"
       width="13.260293"
       height="13.260304"
       x="152.9222"
       y="84.093987" />
    <rect
       style="fill:#ffffff"
       width="13.260293"
       height="13.260304"
       x="314.56793"
       y="70.611656" />
    <rect
       style="fill:#ffffff"
       width="13.260293"
       height="13.260304"
       x="301.30768"
       y="83.871948" />
    <rect
       style="fill:#ff0000"
       width="13.260293"
       height="13.260304"
       x="301.30768"
       y="70.611656" />
    <rect
       style="fill:#ff0000"
       width="13.260293"
       height="13.260304"
       x="314.56793"
       y="83.871948" />
    <rect
       style="fill:#0000ff"
       width="6.6301532"
       height="6.6301498"
       x="87.518944"
       y="70.999069" />
    <rect
       style="fill:#0000ff"
       width="6.6301532"
       height="6.6301498"
       x="94.149101"
       y="77.629219" />
    <rect
       style="fill:#0000ff"
       width="6.6301532"
       height="6.6301498"
       x="87.518944"
       y="84.259369" />
    <rect
       style="fill:#0000ff"
       width="6.6301532"
       height="6.6301498"
       x="94.149101"
       y="90.889526" />
    <rect
       style="fill:#ff0000"
       width="4.9449968"
       height="4.8908577"
       x="366.63876"
       y="70.825066" />
    <rect
       style="fill:#ff0000"
       width="6.9983368"
       height="30.570509"
       x="206.54768"
       y="312.24179"
       transform="rotate(-44.847066)"
       ry="0" />
    <rect
       style="fill:#ff0000"
       width="30.60743"
       height="6.8350539"
       x="194.74315"
       y="324.10953"
       transform="rotate(-44.847066)"
       ry="0" />
    <rect
       style="fill:#ff0000"
       width="4.9449968"
       height="4.8908577"
       x="366.63876"
       y="92.454819" />
    <rect
       style="fill:#ff0000"
       width="4.9449968"
       height="4.8908577"
       x="388.21436"
       y="92.454819" />
    <rect
       style="fill:#ff0000"
       width="4.9449968"
       height="4.8908577"
       x="388.21436"
       y="70.825066" />
    <rect
       style="fill:#ff0000"
       width="26.814144"
       height="8.8402004"
       x="70.741112"
       y="-244.57536"
       transform="rotate(89.928586)" />
    <rect
       style="fill:#ffffff"
       width="26.814144"
       height="8.8402004"
       x="70.741112"
       y="-253.41556"
       transform="rotate(89.928586)" />
    <rect
       style="fill:#0000ff"
       width="26.814144"
       height="8.8402004"
       x="70.741112"
       y="-262.25577"
       transform="rotate(89.928586)" />
    <circle
       style="fill:#000000"
       cx="216.78641"
       cy="84.234627"
       r="6.4497561" />
    <circle
       style="fill:#000000"
       cx="26.555033"
       cy="6.4736238"
       r="3.7587543" />
    <circle
       style="fill:#000000"
       cx="17.069099"
       cy="16.352493"
       r="3.7587543" />
    <circle
       style="fill:#000000"
       cx="17.096375"
       cy="26.006973"
       r="3.7587543" />
    <circle
       style="fill:#000000"
       cx="216.43745"
       cy="16.275358"
       r="3.7587543" />
    <circle
       style="fill:#000000"
       cx="206.95433"
       cy="6.4216871"
       r="3.7587543" />
    <circle
       style="fill:#000000"
       cx="40.55164"
       cy="6.4777718"
       r="3.7587543" />
    <circle
       style="fill:#000000"
       cx="239.91861"
       cy="16.266905"
       r="3.7587543" />
    <circle
       style="fill:#000000"
       cx="230.43547"
       cy="6.4132328"
       r="3.7587543" />
    <circle
       style="fill:#000000"
       cx="74.424347"
       cy="16.403818"
       r="3.7587543" />
    <circle
       style="fill:#000000"
       cx="64.941223"
       cy="6.5501485"
       r="3.7587543" />
    <circle
       style="fill:#000000"
       cx="264.30954"
       cy="6.4730067"
       r="3.7587543" />
    <circle
       style="fill:#000000"
       cx="264.30814"
       cy="16.339283"
       r="3.7587543" />
    <circle
       style="fill:#000000"
       cx="254.82361"
       cy="16.351885"
       r="3.7587543" />
    <circle
       style="fill:#000000"
       cx="254.85092"
       cy="26.006359"
       r="3.7587543" />
    <circle
       style="fill:#000000"
       cx="88.422371"
       cy="6.5416961"
       r="3.7587543" />
    <circle
       style="fill:#000000"
       cx="88.420959"
       cy="16.407965"
       r="3.7587543" />
    <circle
       style="fill:#000000"
       cx="287.79068"
       cy="6.4645524"
       r="3.7587543" />
    <circle
       style="fill:#000000"
       cx="278.30615"
       cy="6.4771533"
       r="3.7587543" />
    <circle
       style="fill:#000000"
       cx="278.30475"
       cy="16.343433"
       r="3.7587543" />
    <circle
       style="fill:#000000"
       cx="121.38389"
       cy="6.5274105"
       r="3.7587543" />
    <circle
       style="fill:#000000"
       cx="111.89935"
       cy="6.5400114"
       r="3.7587543" />
    <circle
       style="fill:#000000"
       cx="301.78317"
       cy="6.4754744"
       r="3.7587543" />
    <circle
       style="fill:#000000"
       cx="301.78174"
       cy="16.341751"
       r="3.7587543" />
    <circle
       style="fill:#000000"
       cx="301.80902"
       cy="25.99622"
       r="3.7587543" />
    <circle
       style="fill:#000000"
       cx="144.86501"
       cy="6.5189581"
       r="3.7587543" />
    <circle
       style="fill:#000000"
       cx="135.38049"
       cy="6.531559"
       r="3.7587543" />
    <circle
       style="fill:#000000"
       cx="334.74878"
       cy="6.4544191"
       r="3.7587543" />
    <circle
       style="fill:#000000"
       cx="334.74741"
       cy="16.320696"
       r="3.7587543" />
    <circle
       style="fill:#000000"
       cx="325.26431"
       cy="6.46702"
       r="3.7587543" />
    <circle
       style="fill:#000000"
       cx="325.26288"
       cy="16.333296"
       r="3.7587543" />
    <circle
       style="fill:#000000"
       cx="169.25316"
       cy="16.457605"
       r="3.7587543" />
    <circle
       style="fill:#000000"
       cx="159.77007"
       cy="6.6039357"
       r="3.7587543" />
    <circle
       style="fill:#000000"
       cx="159.76866"
       cy="16.470201"
       r="3.7587543" />
    <circle
       style="fill:#000000"
       cx="159.79593"
       cy="26.124683"
       r="3.7587543" />
    <circle
       style="fill:#000000"
       cx="359.13837"
       cy="6.526794"
       r="3.7587543" />
    <circle
       style="fill:#000000"
       cx="359.13696"
       cy="16.393074"
       r="3.7587543" />
    <circle
       style="fill:#000000"
       cx="359.16425"
       cy="26.047546"
       r="3.7587543" />
    <circle
       style="fill:#000000"
       cx="349.65387"
       cy="6.5393949"
       r="3.7587543" />
    <circle
       style="fill:#000000"
       cx="349.67975"
       cy="26.06015"
       r="3.7587543" />
    <circle
       style="fill:#000000"
       cx="192.73572"
       cy="6.5828824"
       r="3.7587543" />
    <circle
       style="fill:#000000"
       cx="192.73431"
       cy="16.449148"
       r="3.7587543" />
    <circle
       style="fill:#000000"
       cx="183.25119"
       cy="6.5954833"
       r="3.7587543" />
    <circle
       style="fill:#000000"
       cx="382.61813"
       cy="16.384617"
       r="3.7587543" />
    <circle
       style="fill:#000000"
       cx="373.13501"
       cy="6.5309405"
       r="3.7587543" />
    <circle
       style="fill:#000000"
       cx="373.13361"
       cy="16.397217"
       r="3.7587543" />
    <circle
       style="fill:#000000"
       cx="16.128111"
       cy="44.522758"
       r="1.6722432" />
    <rect
       style="fill:#000000"
       width="3.774332"
       height="7.7358813"
       x="14.201796"
       y="46.74329" />
    <rect
       style="fill:#ff0000"
       width="5.3798742"
       height="5.3798742"
       x="319.37393"
       y="49.778187"
       ry="0" />
    <path
       style="fill:#ffff00"
       d="m 319.37394,49.778157 v 5.379869 h 5.37987 z" />
    <rect
       style="fill:#000000"
       width="15.211946"
       height="0.72474647"
       x="309.54187"
       y="49.053448" />
    <rect
       style="fill:#ff0000"
       width="5.3798742"
       height="5.3798742"
       x="125.88888"
       y="-48.99612"
       ry="0"
       transform="rotate(45.279831)" />
    <path
       style="fill:#ffff00"
       d="m 123.39535,54.974728 -3.82269,3.785517 3.78553,3.822675 z" />
    <rect
       style="fill:#000000"
       width="15.211946"
       height="0.72474647"
       x="116.05679"
       y="-49.72086"
       transform="rotate(45.279831)" />
    <rect
       style="fill:#ff0000"
       width="5.3798742"
       height="5.3798742"
       x="88.461922"
       y="-11.949866"
       ry="0"
       transform="rotate(45.279831)" />
    <path
       style="fill:#ffff00"
       d="m 70.736749,54.44829 -3.822683,3.785516 3.785525,3.822674 z" />
    <rect
       style="fill:#000000"
       width="15.211946"
       height="0.72474647"
       x="78.629829"
       y="-12.674611"
       transform="rotate(45.279831)" />
    <rect
       style="fill:#ff0000"
       width="5.3798752"
       height="5.3798761"
       x="-40.887024"
       y="-210.89603"
       ry="0"
       transform="matrix(0.00234706,-0.99999725,-0.99999725,-0.00234706,0,0)" />
    <path
       style="fill:#ffff00"
       d="m 210.79947,41.381896 -5.37985,-0.01259 0.0127,-5.379869 z" />
    <rect
       style="fill:#000000"
       width="15.211946"
       height="0.72474647"
       x="-50.71909"
       y="210.89604"
       transform="rotate(-89.865522)" />
    <rect
       style="fill:#ff0000"
       width="5.3798752"
       height="5.3395667"
       x="-41.387047"
       y="145.31369"
       ry="0"
       transform="matrix(-0.00232948,-0.99999729,0.9999972,-0.00236478,0,0)" />
    <path
       style="fill:#ffff00"
       d="m 145.4097,41.043278 5.33954,-0.01263 -0.0126,-5.379863 z" />
    <rect
       style="fill:#000000"
       width="15.211946"
       height="0.71931624"
       x="-51.219105"
       y="-145.31367"
       transform="matrix(-0.0023295,-0.99999729,-0.9999972,0.0023648,0,0)" />
    <rect
       style="fill:#ff0000"
       width="5.3798742"
       height="5.3798761"
       x="-35.88308"
       y="21.174669"
       ry="0"
       transform="matrix(-0.70878185,-0.70542774,-0.70542774,0.70878185,0,0)" />
    <path
       style="fill:#ffff00"
       d="M 10.496072,40.321145 6.7009592,44.134302 2.8878005,40.339187 Z" />
    <rect
       style="fill:#000000"
       width="15.211946"
       height="0.72474647"
       x="-45.715145"
       y="-21.174669"
       transform="rotate(-135.13589)" />
    <rect
       style="fill:#ff0000"
       width="5.3798742"
       height="5.3798761"
       x="32.844742"
       y="43.818161"
       ry="0"
       transform="matrix(-0.70706801,0.70714555,0.70714555,0.70706801,0,0)" />
    <path
       style="fill:#ffff00"
       d="m 7.7623487,54.208426 3.8043533,3.803938 -3.8039391,3.804347 z" />
    <rect
       style="fill:#000000"
       width="15.211946"
       height="0.72474647"
       x="23.012667"
       y="-43.818169"
       transform="rotate(134.99686)" />
    <circle
       style="fill:#000000"
       cx="39.905582"
       cy="44.799515"
       r="1.6722432" />
    <rect
       style="fill:#000000"
       width="3.774332"
       height="7.7358813"
       x="37.979267"
       y="47.020046" />
    <rect
       style="fill:#ff0000"
       width="5.3798742"
       height="5.3798761"
       x="-52.931362"
       y="4.597537"
       ry="0"
       transform="matrix(-0.70878185,-0.70542774,-0.70542774,0.70878185,0,0)" />
    <path
       style="fill:#ffff00"
       d="m 34.273548,40.597903 -3.795113,3.813156 -3.813158,-3.795114 z" />
    <rect
       style="fill:#000000"
       width="15.211946"
       height="0.72474647"
       x="-62.763416"
       y="-4.5975366"
       transform="rotate(-135.13589)" />
    <rect
       style="fill:#ff0000"
       width="5.3798742"
       height="5.3798761"
       x="16.228153"
       y="60.827995"
       ry="0"
       transform="matrix(-0.70706801,0.70714555,0.70714555,0.70706801,0,0)" />
    <path
       style="fill:#ffff00"
       d="m 31.539825,54.485187 3.804353,3.803938 -3.803939,3.804347 z" />
    <rect
       style="fill:#000000"
       width="15.211946"
       height="0.72474647"
       x="6.3960786"
       y="-60.827995"
       transform="rotate(134.99686)" />
    <circle
       style="fill:#000000"
       cx="167.25229"
       cy="45.244087"
       r="1.6722432" />
    <rect
       style="fill:#000000"
       width="3.774332"
       height="7.7358813"
       x="165.32597"
       y="47.464619" />
    <rect
       style="fill:#ff0000"
       width="5.3798742"
       height="5.3798761"
       x="-143.506"
       y="-84.921242"
       ry="0"
       transform="matrix(-0.70878185,-0.70542774,-0.70542774,0.70878185,0,0)" />
    <path
       style="fill:#ffff00"
       d="m 161.62023,41.042472 -3.79512,3.813157 -3.81315,-3.795115 z" />
    <rect
       style="fill:#000000"
       width="15.211946"
       height="0.72474647"
       x="-153.33804"
       y="84.921242"
       transform="rotate(-135.13589)" />
    <rect
       style="fill:#ff0000"
       width="5.3798742"
       height="5.3798761"
       x="-268.76569"
       y="-207.50931"
       ry="0"
       transform="matrix(-0.70878185,-0.70542774,-0.70542774,0.70878185,0,0)" />
    <path
       style="fill:#ffff00"
       d="m 336.87909,42.51598 -3.79512,3.81315 -3.81315,-3.795111 z" />
    <rect
       style="fill:#000000"
       width="15.211946"
       height="0.72474647"
       x="-278.59775"
       y="207.50931"
       transform="rotate(-135.13589)" />
    <rect
       style="fill:#ff0000"
       width="5.3798742"
       height="5.3798761"
       x="-73.500237"
       y="151.19493"
       ry="0"
       transform="matrix(-0.70706801,0.70714555,0.70714555,0.70706801,0,0)" />
    <path
       style="fill:#ffff00"
       d="m 158.8865,54.929754 3.80436,3.803937 -3.80394,3.804356 z" />
    <rect
       style="fill:#000000"
       width="15.211946"
       height="0.72474647"
       x="-83.332321"
       y="-151.19493"
       transform="rotate(134.99686)" />
    <circle
       style="fill:#000000"
       cx="142.86511"
       cy="45.346024"
       r="1.6722432" />
    <rect
       style="fill:#000000"
       width="3.774332"
       height="7.7358813"
       x="140.9388"
       y="47.566547" />
    <rect
       style="fill:#ff0000"
       width="5.3798752"
       height="5.3395667"
       x="-43.374668"
       y="391.06659"
       ry="0"
       transform="matrix(-0.00232948,-0.99999729,0.9999972,-0.00236478,0,0)" />
    <path
       style="fill:#ffff00"
       d="m 391.16654,42.449743 5.33954,-0.01263 -0.0126,-5.379863 z" />
    <rect
       style="fill:#000000"
       width="15.211946"
       height="0.71931624"
       x="-53.20673"
       y="-391.06659"
       transform="matrix(-0.0023295,-0.99999729,-0.9999972,0.0023648,0,0)" />
    <circle
       style="fill:#000000"
       cx="388.62195"
       cy="46.752487"
       r="1.6722432" />
    <rect
       style="fill:#000000"
       width="3.774332"
       height="7.7358813"
       x="386.69565"
       y="48.973011" />
    <rect
       style="fill:#ff0000"
       width="5.3798742"
       height="5.3798761"
       x="-56.18478"
       y="134.02171"
       ry="0"
       transform="matrix(-0.70706801,0.70714555,0.70714555,0.70706801,0,0)" />
    <path
       style="fill:#ffff00"
       d="m 134.49934,55.031692 3.80436,3.803931 -3.80393,3.804356 z" />
    <rect
       style="fill:#000000"
       width="15.211946"
       height="0.72474647"
       x="-66.016861"
       y="-134.02173"
       transform="rotate(134.99686)" />
    <circle
       style="fill:#000000"
       cx="185.66197"
       cy="45.69812"
       r="1.6722432" />
    <rect
       style="fill:#000000"
       width="3.774332"
       height="7.7358813"
       x="183.73564"
       y="47.918644" />
    <rect
       style="fill:#ff0000"
       width="5.3798742"
       height="5.3798761"
       x="-86.196068"
       y="164.53427"
       ry="0"
       transform="matrix(-0.70706801,0.70714555,0.70714555,0.70706801,0,0)" />
    <path
       style="fill:#ffff00"
       d="m 177.29618,55.383798 3.80436,3.803925 -3.80394,3.804356 z" />
    <rect
       style="fill:#000000"
       width="15.211946"
       height="0.72474647"
       x="-96.028137"
       y="-164.53429"
       transform="rotate(134.99686)" />
    <circle
       style="fill:#000000"
       cx="62.485409"
       cy="44.731617"
       r="1.6722432" />
    <rect
       style="fill:#000000"
       width="3.774332"
       height="7.7358813"
       x="60.55909"
       y="46.952148" />
    <rect
       style="fill:#ff0000"
       width="5.3798742"
       height="5.3798761"
       x="0.21465653"
       y="76.7472"
       ry="0"
       transform="matrix(-0.70706801,0.70714555,0.70714555,0.70706801,0,0)" />
    <path
       style="fill:#ffff00"
       d="m 54.119657,54.417284 3.804353,3.803941 -3.803939,3.804347 z" />
    <rect
       style="fill:#000000"
       width="15.211946"
       height="0.72474647"
       x="-9.6174135"
       y="-76.7472"
       transform="rotate(134.99686)" />
    <rect
       style="fill:#ff0000"
       width="5.3798742"
       height="5.3798742"
       x="243.43649"
       y="-166.38391"
       ry="0"
       transform="rotate(45.279831)" />
    <path
       style="fill:#ffff00"
       d="m 289.51723,55.899064 -3.82269,3.785526 3.78552,3.822674 z" />
    <rect
       style="fill:#000000"
       width="15.211946"
       height="0.72474647"
       x="233.6044"
       y="-167.10866"
       transform="rotate(45.279831)" />
    <circle
       style="fill:#000000"
       cx="281.26587"
       cy="46.182381"
       r="1.6722432" />
    <rect
       style="fill:#000000"
       width="3.774332"
       height="7.7358813"
       x="279.33954"
       y="48.402916" />
    <rect
       style="fill:#ff0000"
       width="5.3798742"
       height="5.3798761"
       x="-153.4521"
       y="232.48262"
       ry="0"
       transform="matrix(-0.70706801,0.70714555,0.70714555,0.70706801,0,0)" />
    <path
       style="fill:#ffff00"
       d="m 272.90014,55.86806 3.80434,3.803949 -3.80393,3.804347 z" />
    <rect
       style="fill:#000000"
       width="15.211946"
       height="0.72474647"
       x="-163.28418"
       y="-232.48262"
       transform="rotate(134.99686)" />
    <circle
       style="fill:#000000"
       cx="233.32953"
       cy="46.004475"
       r="1.6722432" />
    <rect
       style="fill:#000000"
       width="3.774332"
       height="7.7358813"
       x="231.4032"
       y="48.224995" />
    <rect
       style="fill:#ff0000"
       width="5.3798742"
       height="5.3798761"
       x="-119.68366"
       y="198.45882"
       ry="0"
       transform="matrix(-0.70706801,0.70714555,0.70714555,0.70706801,0,0)" />
    <path
       style="fill:#ffff00"
       d="m 224.96376,55.690128 3.80435,3.803948 -3.80394,3.804346 z" />
    <rect
       style="fill:#000000"
       width="15.211946"
       height="0.72474647"
       x="-129.51573"
       y="-198.45882"
       transform="rotate(134.99686)" />
    <rect
       style="fill:#ff0000"
       width="5.3798742"
       height="5.3798742"
       x="58.34507"
       y="-215.27147"
       ry="0"
       transform="rotate(89.996359)" />
    <path
       style="fill:#ffff00"
       d="m 215.27519,58.331393 -5.37989,3.46e-4 3.5e-4,5.379869 z" />
    <rect
       style="fill:#000000"
       width="15.211946"
       height="0.72474647"
       x="48.512993"
       y="-215.99619"
       transform="rotate(89.996359)" />
    <circle
       style="fill:#000000"
       cx="213.42656"
       cy="46.278805"
       r="1.6722432" />
    <rect
       style="fill:#000000"
       width="3.774332"
       height="7.7358813"
       x="211.50024"
       y="48.499344" />
    <rect
       style="fill:#ff0000"
       width="5.3798752"
       height="5.3798761"
       x="-40.251888"
       y="-81.786156"
       ry="0"
       transform="matrix(0.00234706,-0.99999725,-0.99999725,-0.00234706,0,0)" />
    <path
       style="fill:#ffff00"
       d="m 81.691468,40.443719 -5.37985,-0.01263 0.01269,-5.379862 z" />
    <rect
       style="fill:#000000"
       width="15.211946"
       height="0.72474647"
       x="-50.083939"
       y="81.786171"
       transform="rotate(-89.865522)" />
    <circle
       style="fill:#000000"
       cx="84.31855"
       cy="45.340618"
       r="1.6722432" />
    <rect
       style="fill:#000000"
       width="3.774332"
       height="7.7358813"
       x="82.392235"
       y="47.561157" />
    <rect
       style="fill:#ff0000"
       width="5.3798742"
       height="5.3798761"
       x="-107.16213"
       y="48.198063"
       ry="0"
       transform="matrix(-1,-4.4825382e-5,-4.4825382e-5,1,0,0)" />
    <path
       style="fill:#ffff00"
       d="m 107.15993,48.202875 -2.4e-4,5.379875 -5.37987,-2.42e-4 z" />
    <rect
       style="fill:#000000"
       width="15.211946"
       height="0.72474647"
       x="-116.99416"
       y="-48.198063"
       transform="rotate(-179.99743)" />
    <circle
       style="fill:#000000"
       cx="115.14404"
       cy="45.258049"
       r="1.6722432" />
    <rect
       style="fill:#000000"
       width="3.774332"
       height="7.7358813"
       x="113.2177"
       y="47.478588" />
    <rect
       style="fill:#ff0000"
       width="5.3798742"
       height="5.3798742"
       x="301.35446"
       y="-224.37225"
       ry="0"
       transform="rotate(45.279831)" />
    <path
       style="fill:#ffff00"
       d="m 371.47459,56.249579 -3.82268,3.785525 3.78552,3.822675 z" />
    <rect
       style="fill:#000000"
       width="15.211946"
       height="0.72474647"
       x="291.5224"
       y="-225.09702"
       transform="rotate(45.279831)" />
    <rect
       style="fill:#ff0000"
       width="5.3798742"
       height="5.3798761"
       x="-355.24136"
       y="49.461823"
       ry="0"
       transform="matrix(-1,-4.4825382e-5,-4.4825382e-5,1,0,0)" />
    <path
       style="fill:#ffff00"
       d="m 355.23917,49.477724 -2.4e-4,5.379869 -5.37987,-2.5e-4 z" />
    <rect
       style="fill:#000000"
       width="15.211946"
       height="0.72474647"
       x="-365.07343"
       y="-49.461803"
       transform="rotate(-179.99743)" />
    <circle
       style="fill:#000000"
       cx="363.22327"
       cy="46.532932"
       r="1.6722432" />
    <rect
       style="fill:#000000"
       width="3.774332"
       height="7.7358813"
       x="361.29697"
       y="48.753441" />
    <rect
       style="fill:#ff0000"
       width="5.3798742"
       height="5.3798761"
       x="-380.64005"
       y="49.680252"
       ry="0"
       transform="matrix(-1,-4.4825382e-5,-4.4825382e-5,1,0,0)" />
    <path
       style="fill:#ffff00"
       d="m 380.63786,49.697294 -2.4e-4,5.379869 -5.37987,-2.5e-4 z" />
    <rect
       style="fill:#000000"
       width="15.211946"
       height="0.72474647"
       x="-390.47211"
       y="-49.680233"
       transform="rotate(-179.99743)" />
    <rect
       style="fill:#ff0000"
       width="5.3798742"
       height="5.3798761"
       x="-334.52924"
       y="49.647408"
       ry="0"
       transform="matrix(-1,-4.4825382e-5,-4.4825382e-5,1,0,0)" />
    <path
       style="fill:#ffff00"
       d="m 334.52702,49.662385 -2.4e-4,5.379869 -5.37987,-2.5e-4 z" />
    <rect
       style="fill:#000000"
       width="15.211946"
       height="0.72474647"
       x="-344.3613"
       y="-49.647385"
       transform="rotate(-179.99743)" />
    <circle
       style="fill:#000000"
       cx="342.51111"
       cy="46.717583"
       r="1.6722432" />
    <rect
       style="fill:#000000"
       width="3.774332"
       height="7.7358813"
       x="340.58481"
       y="48.938095" />
    <rect
       style="fill:#ff0000"
       width="5.3798742"
       height="5.3798761"
       x="-303.4863"
       y="49.764133"
       ry="0"
       transform="matrix(-1,-4.4825382e-5,-4.4825382e-5,1,0,0)" />
    <path
       style="fill:#ffff00"
       d="m 303.48409,49.777705 -2.2e-4,5.379869 -5.37989,-2.4e-4 z" />
    <rect
       style="fill:#000000"
       width="15.211946"
       height="0.72474647"
       x="-313.31839"
       y="-49.764103"
       transform="rotate(-179.99743)" />
    <circle
       style="fill:#000000"
       cx="311.46817"
       cy="46.832909"
       r="1.6722432" />
    <rect
       style="fill:#000000"
       width="3.774332"
       height="7.7358813"
       x="309.54187"
       y="49.053448" />
    <rect
       style="fill:#ff0000"
       width="5.3798742"
       height="5.3798742"
       x="241.23528"
       y="48.94973"
       ry="0" />
    <path
       style="fill:#ffff00"
       d="m 241.23528,48.949701 v 5.379869 h 5.37987 z" />
    <rect
       style="fill:#000000"
       width="15.211946"
       height="0.72474647"
       x="231.4032"
       y="48.224995" />
    <rect
       style="fill:#ff0000"
       width="5.3798742"
       height="5.3798742"
       x="92.224312"
       y="48.285881"
       ry="0" />
    <path
       style="fill:#ffff00"
       d="m 92.224304,48.285857 v 5.379869 h 5.379869 z" />
    <rect
       style="fill:#000000"
       width="15.211946"
       height="0.72474647"
       x="82.392235"
       y="47.561157" />
    <rect
       style="fill:#ff0000"
       width="5.3798742"
       height="5.3798742"
       x="156.12823"
       y="216.18248"
       ry="0"
       transform="rotate(-44.935008)" />
    <path
       style="fill:#ffff00"
       d="m 263.21511,42.763334 3.79983,3.808441 3.80843,-3.79982 z" />
    <rect
       style="fill:#000000"
       width="15.211946"
       height="0.72474647"
       x="146.29616"
       y="215.4577"
       transform="rotate(-44.935008)" />
    <circle
       style="fill:#000000"
       cx="255.49808"
       cy="45.775162"
       r="1.6722432" />
    <rect
       style="fill:#ff0000"
       width="5.3798742"
       height="5.3798742"
       x="107.26142"
       y="166.95932"
       ry="0"
       transform="rotate(-44.935008)" />
    <path
       style="fill:#ffff00"
       d="m 193.85534,42.432714 3.79983,3.808441 3.80843,-3.79982 z" />
    <rect
       style="fill:#000000"
       width="15.211946"
       height="0.72474647"
       x="97.429329"
       y="166.23456"
       transform="rotate(-44.935008)" />
    <rect
       style="fill:#000000"
       width="3.774332"
       height="7.7358813"
       x="253.57176"
       y="47.995659" />
    <rect
       style="fill:#ff0000"
       width="5.3798742"
       height="5.3798761"
       x="57.976879"
       y="253.54349"
       ry="0"
       transform="matrix(5.8812266e-4,0.99999983,0.99999983,-5.8812266e-4,0,0)" />
    <path
       style="fill:#ffff00"
       d="m 253.57756,57.827741 5.37988,-0.0029 0.003,5.379878 z" />
    <rect
       style="fill:#000000"
       width="15.211946"
       height="0.72474647"
       x="48.144791"
       y="-253.54349"
       transform="rotate(89.966305)" />
    <rect
       style="fill:#ffffff"
       width="26.520609"
       height="26.520609"
       x="268.89456"
       y="70.328781"
       ry="0" />
    <rect
       style="fill:#0000ff"
       width="6.6301532"
       height="6.6301498"
       x="268.89456"
       y="83.589081" />
    <rect
       style="fill:#0000ff"
       width="6.6301532"
       height="6.6301498"
       x="275.52472"
       y="90.219238" />
    <rect
       style="fill:#0000ff"
       width="6.6301532"
       height="6.6301498"
       x="268.89456"
       y="70.328781" />
    <rect
       style="fill:#0000ff"
       width="6.6301532"
       height="6.6301498"
       x="275.52472"
       y="76.958931" />
    <rect
       style="fill:#0000ff"
       width="6.6301532"
       height="6.6301498"
       x="282.15488"
       y="70.328781" />
    <rect
       style="fill:#0000ff"
       width="6.6301532"
       height="6.6301498"
       x="288.78503"
       y="76.958931" />
    <rect
       style="fill:#0000ff"
       width="6.6301532"
       height="6.6301498"
       x="282.15488"
       y="83.589081" />
    <rect
       style="fill:#0000ff"
       width="6.6301532"
       height="6.6301498"
       x="288.78503"
       y="90.219238" />
  </g>
</svg>
